<?xml version="1.0" standalone="no"?>
<!DOCTYPE svg PUBLIC "-//W3C//DTD SVG 20010904//EN"
 "http://www.w3.org/TR/2001/REC-SVG-20010904/DTD/svg10.dtd">
<svg version="1.0" xmlns="http://www.w3.org/2000/svg"
 width="237.000000pt" height="237.000000pt" viewBox="0 0 237.000000 237.000000"
 preserveAspectRatio="xMidYMid meet">
<metadata>
Created by potrace 1.11, written by Peter Selinger 2001-2013
</metadata>
<g transform="translate(0.000000,237.000000) scale(0.100000,-0.100000)"
fill="#000000" stroke="none">
<path d="M1138 1646 c-107 -29 -187 -133 -176 -230 l5 -44 -50 25 c-43 22 -59
25 -116 20 -76 -6 -118 -24 -159 -71 -67 -77 -79 -184 -28 -270 13 -22 113
-129 223 -237 220 -218 230 -224 343 -217 57 3 77 9 112 34 24 16 54 46 67 67
23 35 28 37 75 37 101 1 191 71 221 174 21 73 12 107 -77 271 -221 407 -214
397 -313 434 -64 24 -64 24 -127 7z m329 -359 c27 -28 133 -236 139 -274 22
-139 -129 -248 -254 -184 -53 27 -71 51 -141 181 -57 106 -61 116 -50 144 28
65 95 122 168 143 50 14 119 9 138 -10z m-302 -304 c61 -111 92 -156 122 -179
39 -29 40 -32 26 -57 -20 -39 -94 -79 -145 -79 -69 0 -97 17 -205 125 -86 85
-103 107 -103 132 0 44 46 130 88 165 41 34 112 62 126 49 5 -5 46 -75 91
-156z"/>
</g>
</svg>
