<?xml version="1.0" standalone="no"?>
<!DOCTYPE svg PUBLIC "-//W3C//DTD SVG 20010904//EN"
 "http://www.w3.org/TR/2001/REC-SVG-20010904/DTD/svg10.dtd">
<svg version="1.0" xmlns="http://www.w3.org/2000/svg"
 width="471.000000pt" height="471.000000pt" viewBox="0 0 471.000000 471.000000"
 preserveAspectRatio="xMidYMid meet">
<metadata>
Created by potrace 1.11, written by Peter Selinger 2001-2013
</metadata>
<g transform="translate(0.000000,471.000000) scale(0.100000,-0.100000)"
fill="#000000" stroke="none">
<path d="M504 3160 c-25 -10 -41 -30 -24 -30 6 0 8 -5 3 -12 -9 -16 -10 -39
-2 -58 4 -8 3 -24 -1 -35 -4 -11 -3 -26 2 -32 6 -7 6 -13 1 -13 -10 0 -10 -60
1 -78 4 -7 3 -12 -2 -12 -10 0 -9 -30 2 -48 4 -6 4 -12 -1 -12 -10 0 -9 -91 1
-108 4 -7 3 -12 -2 -12 -10 0 -9 -30 2 -48 4 -6 3 -12 -2 -12 -10 0 -9 -30 2
-48 4 -6 3 -12 -1 -12 -5 0 -8 -19 -6 -42 4 -43 3 -75 -1 -113 -1 -11 2 -26 7
-32 6 -8 6 -13 0 -13 -11 0 -11 -29 1 -48 4 -6 3 -12 -2 -12 -10 0 -9 -30 2
-48 4 -6 3 -12 -1 -12 -5 0 -8 -19 -6 -42 5 -58 5 -59 0 -90 -2 -14 -1 -32 4
-39 4 -7 3 -22 -1 -34 -5 -14 -4 -27 3 -34 6 -6 7 -11 1 -11 -11 0 -12 -60 0
-78 4 -7 3 -12 -2 -12 -10 0 -9 -30 2 -48 4 -6 4 -12 -1 -12 -10 0 -9 -52 1
-68 4 -7 4 -12 -1 -12 -4 0 -8 -13 -8 -30 -1 -16 3 -30 8 -30 6 0 6 -5 0 -12
-10 -16 -10 -98 0 -115 5 -7 4 -13 -1 -13 -8 0 -9 -23 -2 -55 1 -5 1 -12 0
-15 -7 -19 -5 -50 4 -50 6 0 5 -4 -3 -9 -11 -7 -11 -10 0 -17 15 -9 91 -6 99
4 8 11 30 13 30 2 0 -6 9 -6 24 0 14 5 45 10 70 11 25 2 46 5 46 8 0 3 24 7
53 9 47 3 92 8 92 12 0 1 19 3 43 6 23 2 61 6 85 8 23 3 42 6 42 6 0 2 27 6
109 15 33 3 63 8 66 10 3 2 30 5 58 6 29 2 52 5 52 8 0 3 10 6 23 7 63 3 127
10 127 14 0 3 28 6 62 8 33 2 70 8 81 13 15 9 18 8 12 -2 -5 -8 -4 -10 3 -5 7
4 33 9 59 12 27 3 55 8 63 11 8 2 40 7 70 9 71 6 82 8 98 18 8 5 18 4 24 -2 8
-8 17 -8 32 0 11 6 33 11 48 10 15 0 28 4 28 9 0 6 6 7 13 2 15 -9 40 -10 47
-1 3 4 27 8 53 9 26 2 47 7 47 12 0 6 5 5 13 -1 7 -5 21 -6 32 -1 28 11 103
11 110 -1 3 -5 15 -6 29 0 13 5 29 4 37 -1 8 -5 28 -9 45 -9 17 0 33 -3 37 -6
5 -6 55 -11 154 -17 18 -1 33 -4 33 -7 0 -3 10 -5 23 -6 57 -2 145 -12 153
-17 5 -3 29 -6 54 -8 25 -1 49 -5 54 -8 6 -2 37 -6 70 -9 34 -2 65 -8 70 -12
5 -5 16 -5 26 0 9 5 22 5 31 -1 7 -5 31 -9 51 -9 20 0 40 -5 43 -10 4 -7 12
-7 25 0 10 6 21 6 24 2 3 -5 24 -9 47 -10 24 -1 46 -8 51 -15 6 -9 8 -9 8 1 0
7 5 10 10 7 6 -4 38 -9 73 -12 34 -3 70 -9 80 -14 11 -7 17 -6 17 1 0 7 6 8
18 1 9 -5 49 -12 87 -15 39 -4 78 -9 87 -12 10 -3 45 -7 79 -8 34 -2 64 -7 68
-12 3 -5 29 -10 56 -11 85 -4 166 -12 176 -18 5 -4 10 0 10 7 1 7 3 23 4 36 1
12 -3 22 -9 22 -7 0 -7 3 -1 8 14 10 17 32 4 32 -5 0 -7 5 -4 11 10 15 11 229
2 229 -5 0 -5 5 -2 11 10 15 11 229 2 229 -5 0 -5 5 -2 11 10 15 11 229 2 229
-5 0 -5 5 -1 11 9 15 11 309 2 309 -4 0 -5 7 -1 16 9 23 9 544 0 544 -5 0 -5
5 -1 11 4 7 -11 9 -52 5 -97 -9 -195 -24 -201 -30 -4 -3 -12 -1 -19 5 -10 8
-15 8 -19 -3 -4 -10 -16 -13 -35 -10 -17 2 -36 -1 -44 -7 -10 -8 -16 -9 -21
-1 -3 6 -11 8 -16 4 -12 -7 -40 -12 -104 -18 -27 -3 -50 -5 -50 -6 0 -3 -44
-11 -90 -15 -126 -12 -158 -16 -168 -22 -6 -4 -25 -6 -41 -6 -17 0 -36 -4 -43
-9 -7 -5 -14 -5 -17 1 -4 6 -20 4 -42 -5 -25 -10 -33 -11 -28 -3 4 7 3 9 -3 6
-12 -8 -69 -18 -105 -19 -16 -1 -28 -4 -28 -7 0 -3 -21 -7 -47 -7 -27 -1 -61
-5 -78 -8 -16 -4 -52 -9 -80 -11 -27 -2 -52 -5 -55 -6 -8 -3 -22 -5 -92 -13
-38 -5 -68 -13 -68 -18 0 -5 -6 -5 -17 0 -10 6 -27 6 -45 0 -16 -6 -37 -8 -48
-5 -11 3 -22 1 -25 -3 -5 -9 -18 -10 -102 -13 -24 -1 -43 -5 -43 -9 0 -3 -15
-5 -32 -4 -18 1 -39 -2 -45 -7 -8 -6 -13 -6 -13 1 0 9 -65 22 -119 22 -12 0
-28 3 -34 7 -7 4 -24 6 -39 4 -15 -1 -37 3 -49 9 -16 9 -20 9 -14 0 6 -9 3 -9
-11 -2 -11 6 -22 10 -27 10 -33 0 -135 16 -149 23 -13 7 -18 6 -18 -3 0 -8 -3
-9 -8 -3 -4 6 -20 11 -37 12 -94 7 -135 12 -143 17 -8 5 -124 18 -169 19 -7 0
-13 4 -13 9 0 5 -9 4 -19 -2 -12 -6 -21 -6 -23 0 -2 5 -37 12 -78 16 -41 3
-76 9 -78 13 -1 4 -16 5 -32 3 -17 -2 -36 0 -43 6 -8 7 -18 7 -27 2 -8 -5 -19
-5 -25 0 -5 4 -37 11 -70 14 -33 4 -87 11 -120 16 -33 5 -85 12 -116 16 -78 8
-88 9 -95 16 -3 4 -12 4 -20 1 -8 -3 -22 -2 -31 2 -18 7 -68 14 -111 15 -13 0
-31 4 -40 9 -9 5 -27 5 -38 1z"/>
</g>
</svg>
