<?xml version="1.0" standalone="no"?>
<!DOCTYPE svg PUBLIC "-//W3C//DTD SVG 20010904//EN"
 "http://www.w3.org/TR/2001/REC-SVG-20010904/DTD/svg10.dtd">
<svg version="1.0" xmlns="http://www.w3.org/2000/svg"
 width="501.000000pt" height="501.000000pt" viewBox="0 0 501.000000 501.000000"
 preserveAspectRatio="xMidYMid meet">
<metadata>
Created by potrace 1.11, written by Peter Selinger 2001-2013
</metadata>
<g transform="translate(0.000000,501.000000) scale(0.100000,-0.100000)"
fill="#000000" stroke="none">
<path d="M2338 5005 c-2 -2 -34 -6 -73 -9 -105 -8 -151 -15 -255 -37 -52 -11
-106 -22 -120 -25 -128 -26 -392 -128 -547 -211 -49 -25 -97 -51 -109 -58 -38
-19 -248 -163 -274 -187 -14 -13 -48 -41 -75 -63 -51 -41 -215 -202 -272 -266
-174 -199 -361 -513 -449 -755 -35 -96 -87 -264 -97 -314 -3 -14 -12 -61 -21
-105 -9 -44 -19 -102 -21 -130 -3 -27 -8 -61 -11 -75 -3 -14 -7 -118 -8 -231
-4 -322 31 -549 130 -845 117 -351 322 -680 587 -947 245 -246 499 -419 810
-551 104 -45 335 -120 400 -131 18 -3 48 -10 67 -15 19 -4 89 -16 155 -26 174
-25 579 -24 706 1 13 3 40 8 59 11 62 10 184 35 215 44 124 38 211 67 275 92
455 179 842 482 1126 882 208 294 340 598 413 953 11 54 23 122 26 152 4 30 9
63 12 75 8 39 11 410 3 491 -14 144 -33 255 -61 370 -22 87 -77 270 -89 295
-4 8 -23 51 -41 95 -118 287 -302 558 -534 790 -132 132 -240 220 -400 326
-114 76 -349 199 -445 234 -237 86 -391 126 -579 150 -25 4 -62 9 -81 12 -39
6 -416 13 -422 8z"/>
</g>
</svg>
